<mxfile host="app.diagrams.net" modified="2021-11-20T05:58:03.530Z" agent="5.0 (Macintosh; Intel Mac OS X 10_15_7) AppleWebKit/537.36 (KHTML, like Gecko) Chrome/95.0.4638.69 Safari/537.36" etag="RUY1UXI-KLD-qE_EoXbr" version="15.8.2" type="github">
  <diagram id="Y21CThM1k-pJ4v3Q1BwN" name="Page-1">
    <mxGraphModel dx="1351" dy="1887" grid="1" gridSize="10" guides="1" tooltips="1" connect="1" arrows="1" fold="1" page="1" pageScale="1" pageWidth="850" pageHeight="1100" math="0" shadow="0">
      <root>
        <mxCell id="0" />
        <mxCell id="1" parent="0" />
        <mxCell id="l2L26NX0MNyejt-cYaBH-1" value="" style="rounded=0;whiteSpace=wrap;html=1;" vertex="1" parent="1">
          <mxGeometry x="50" y="40" width="230" height="170" as="geometry" />
        </mxCell>
        <mxCell id="l2L26NX0MNyejt-cYaBH-4" value="Nav" style="text;html=1;strokeColor=none;fillColor=none;align=center;verticalAlign=middle;whiteSpace=wrap;rounded=0;" vertex="1" parent="1">
          <mxGeometry x="50" y="40" width="60" height="30" as="geometry" />
        </mxCell>
        <mxCell id="l2L26NX0MNyejt-cYaBH-5" value="Search" style="text;html=1;strokeColor=none;fillColor=none;align=center;verticalAlign=middle;whiteSpace=wrap;rounded=0;" vertex="1" parent="1">
          <mxGeometry x="50" y="60" width="60" height="30" as="geometry" />
        </mxCell>
        <mxCell id="l2L26NX0MNyejt-cYaBH-8" value="&lt;font style=&quot;font-size: 22px&quot;&gt;Home&lt;/font&gt;" style="text;html=1;strokeColor=none;fillColor=none;align=center;verticalAlign=middle;whiteSpace=wrap;rounded=0;fontSize=36;" vertex="1" parent="1">
          <mxGeometry x="110" width="120" height="40" as="geometry" />
        </mxCell>
        <mxCell id="l2L26NX0MNyejt-cYaBH-9" value="" style="rounded=0;whiteSpace=wrap;html=1;" vertex="1" parent="1">
          <mxGeometry x="530" y="40" width="230" height="170" as="geometry" />
        </mxCell>
        <mxCell id="l2L26NX0MNyejt-cYaBH-10" value="Nav" style="text;html=1;strokeColor=none;fillColor=none;align=center;verticalAlign=middle;whiteSpace=wrap;rounded=0;" vertex="1" parent="1">
          <mxGeometry x="540" y="50" width="60" height="30" as="geometry" />
        </mxCell>
        <mxCell id="l2L26NX0MNyejt-cYaBH-12" value="&lt;font style=&quot;font-size: 32px&quot;&gt;Content&lt;/font&gt;" style="text;html=1;strokeColor=none;fillColor=none;align=center;verticalAlign=middle;whiteSpace=wrap;rounded=0;" vertex="1" parent="1">
          <mxGeometry x="555" y="90" width="180" height="80" as="geometry" />
        </mxCell>
        <mxCell id="l2L26NX0MNyejt-cYaBH-13" value="&lt;font style=&quot;font-size: 22px&quot;&gt;Post&lt;/font&gt;" style="text;html=1;strokeColor=none;fillColor=none;align=center;verticalAlign=middle;whiteSpace=wrap;rounded=0;fontSize=32;" vertex="1" parent="1">
          <mxGeometry x="615" width="60" height="30" as="geometry" />
        </mxCell>
        <mxCell id="l2L26NX0MNyejt-cYaBH-14" value="" style="rounded=0;whiteSpace=wrap;html=1;" vertex="1" parent="1">
          <mxGeometry x="55" y="340" width="230" height="170" as="geometry" />
        </mxCell>
        <mxCell id="l2L26NX0MNyejt-cYaBH-15" value="Nav" style="text;html=1;strokeColor=none;fillColor=none;align=center;verticalAlign=middle;whiteSpace=wrap;rounded=0;" vertex="1" parent="1">
          <mxGeometry x="65" y="350" width="60" height="30" as="geometry" />
        </mxCell>
        <mxCell id="l2L26NX0MNyejt-cYaBH-17" value="&lt;font style=&quot;font-size: 16px&quot;&gt;Fav Spot&lt;/font&gt;" style="text;html=1;strokeColor=none;fillColor=none;align=center;verticalAlign=middle;whiteSpace=wrap;rounded=0;" vertex="1" parent="1">
          <mxGeometry x="60" y="385" width="80" height="20" as="geometry" />
        </mxCell>
        <mxCell id="l2L26NX0MNyejt-cYaBH-18" value="&lt;span style=&quot;font-size: 22px&quot;&gt;User&lt;/span&gt;" style="text;html=1;strokeColor=none;fillColor=none;align=center;verticalAlign=middle;whiteSpace=wrap;rounded=0;fontSize=32;" vertex="1" parent="1">
          <mxGeometry x="140" y="300" width="60" height="30" as="geometry" />
        </mxCell>
        <mxCell id="l2L26NX0MNyejt-cYaBH-19" value="Comment" style="text;html=1;strokeColor=none;fillColor=none;align=center;verticalAlign=middle;whiteSpace=wrap;rounded=0;fontSize=12;" vertex="1" parent="1">
          <mxGeometry x="700" y="180" width="60" height="30" as="geometry" />
        </mxCell>
        <mxCell id="l2L26NX0MNyejt-cYaBH-20" value="" style="rounded=0;whiteSpace=wrap;html=1;" vertex="1" parent="1">
          <mxGeometry x="530" y="600" width="230" height="170" as="geometry" />
        </mxCell>
        <mxCell id="l2L26NX0MNyejt-cYaBH-21" value="Nav" style="text;html=1;strokeColor=none;fillColor=none;align=center;verticalAlign=middle;whiteSpace=wrap;rounded=0;" vertex="1" parent="1">
          <mxGeometry x="537.5" y="610" width="60" height="30" as="geometry" />
        </mxCell>
        <mxCell id="l2L26NX0MNyejt-cYaBH-24" value="&lt;span style=&quot;font-size: 22px&quot;&gt;New&lt;/span&gt;" style="text;html=1;strokeColor=none;fillColor=none;align=center;verticalAlign=middle;whiteSpace=wrap;rounded=0;fontSize=32;" vertex="1" parent="1">
          <mxGeometry x="612.5" y="560" width="60" height="30" as="geometry" />
        </mxCell>
        <mxCell id="l2L26NX0MNyejt-cYaBH-25" value="Location:&lt;br&gt;country:&lt;br&gt;state/province:&lt;br&gt;address:" style="text;html=1;strokeColor=none;fillColor=none;align=center;verticalAlign=middle;whiteSpace=wrap;rounded=0;fontSize=12;" vertex="1" parent="1">
          <mxGeometry x="527.5" y="640" width="85" height="80" as="geometry" />
        </mxCell>
        <mxCell id="l2L26NX0MNyejt-cYaBH-26" value="" style="rounded=0;whiteSpace=wrap;html=1;fontSize=12;" vertex="1" parent="1">
          <mxGeometry x="600" y="655" width="50" height="10" as="geometry" />
        </mxCell>
        <mxCell id="l2L26NX0MNyejt-cYaBH-27" value="" style="rounded=0;whiteSpace=wrap;html=1;fontSize=12;" vertex="1" parent="1">
          <mxGeometry x="600" y="670" width="50" height="10" as="geometry" />
        </mxCell>
        <mxCell id="l2L26NX0MNyejt-cYaBH-28" value="" style="rounded=0;whiteSpace=wrap;html=1;fontSize=12;" vertex="1" parent="1">
          <mxGeometry x="612.5" y="680" width="50" height="10" as="geometry" />
        </mxCell>
        <mxCell id="l2L26NX0MNyejt-cYaBH-29" value="" style="rounded=0;whiteSpace=wrap;html=1;fontSize=12;" vertex="1" parent="1">
          <mxGeometry x="600" y="700" width="50" height="10" as="geometry" />
        </mxCell>
        <mxCell id="l2L26NX0MNyejt-cYaBH-30" value="Upload Img" style="rounded=0;whiteSpace=wrap;html=1;fontSize=12;" vertex="1" parent="1">
          <mxGeometry x="672.5" y="650" width="80" height="50" as="geometry" />
        </mxCell>
        <mxCell id="l2L26NX0MNyejt-cYaBH-31" value="&lt;font style=&quot;font-size: 7px&quot;&gt;upload url&lt;/font&gt;" style="rounded=0;whiteSpace=wrap;html=1;fontSize=12;" vertex="1" parent="1">
          <mxGeometry x="682.5" y="705" width="60" height="20" as="geometry" />
        </mxCell>
        <mxCell id="l2L26NX0MNyejt-cYaBH-32" value="Spot img" style="rounded=0;whiteSpace=wrap;html=1;fontSize=7;" vertex="1" parent="1">
          <mxGeometry x="65" y="90" width="60" height="40" as="geometry" />
        </mxCell>
        <mxCell id="l2L26NX0MNyejt-cYaBH-33" value="Spot Img" style="rounded=0;whiteSpace=wrap;html=1;fontSize=7;" vertex="1" parent="1">
          <mxGeometry x="140" y="90" width="60" height="40" as="geometry" />
        </mxCell>
        <mxCell id="l2L26NX0MNyejt-cYaBH-34" value="Spot Img" style="rounded=0;whiteSpace=wrap;html=1;fontSize=7;" vertex="1" parent="1">
          <mxGeometry x="210" y="90" width="60" height="40" as="geometry" />
        </mxCell>
        <mxCell id="l2L26NX0MNyejt-cYaBH-35" value="Spot Img" style="rounded=0;whiteSpace=wrap;html=1;fontSize=7;" vertex="1" parent="1">
          <mxGeometry x="65" y="140" width="60" height="40" as="geometry" />
        </mxCell>
        <mxCell id="l2L26NX0MNyejt-cYaBH-36" value="Spot Img" style="rounded=0;whiteSpace=wrap;html=1;fontSize=7;" vertex="1" parent="1">
          <mxGeometry x="140" y="140" width="60" height="40" as="geometry" />
        </mxCell>
        <mxCell id="l2L26NX0MNyejt-cYaBH-37" value="Spot Img" style="rounded=0;whiteSpace=wrap;html=1;fontSize=7;" vertex="1" parent="1">
          <mxGeometry x="210" y="140" width="60" height="40" as="geometry" />
        </mxCell>
        <mxCell id="l2L26NX0MNyejt-cYaBH-38" value="Spot img" style="rounded=0;whiteSpace=wrap;html=1;fontSize=7;" vertex="1" parent="1">
          <mxGeometry x="67.5" y="410" width="60" height="40" as="geometry" />
        </mxCell>
        <mxCell id="l2L26NX0MNyejt-cYaBH-39" value="Spot Img" style="rounded=0;whiteSpace=wrap;html=1;fontSize=7;" vertex="1" parent="1">
          <mxGeometry x="142.5" y="410" width="60" height="40" as="geometry" />
        </mxCell>
        <mxCell id="l2L26NX0MNyejt-cYaBH-40" value="Spot Img" style="rounded=0;whiteSpace=wrap;html=1;fontSize=7;" vertex="1" parent="1">
          <mxGeometry x="212.5" y="410" width="60" height="40" as="geometry" />
        </mxCell>
        <mxCell id="l2L26NX0MNyejt-cYaBH-41" value="Spot Img" style="rounded=0;whiteSpace=wrap;html=1;fontSize=7;" vertex="1" parent="1">
          <mxGeometry x="67.5" y="460" width="60" height="40" as="geometry" />
        </mxCell>
        <mxCell id="l2L26NX0MNyejt-cYaBH-42" value="Spot Img" style="rounded=0;whiteSpace=wrap;html=1;fontSize=7;" vertex="1" parent="1">
          <mxGeometry x="142.5" y="460" width="60" height="40" as="geometry" />
        </mxCell>
        <mxCell id="l2L26NX0MNyejt-cYaBH-43" value="Spot Img" style="rounded=0;whiteSpace=wrap;html=1;fontSize=7;" vertex="1" parent="1">
          <mxGeometry x="212.5" y="460" width="60" height="40" as="geometry" />
        </mxCell>
        <mxCell id="l2L26NX0MNyejt-cYaBH-44" value="" style="rounded=0;whiteSpace=wrap;html=1;" vertex="1" parent="1">
          <mxGeometry x="51.25" y="590" width="230" height="170" as="geometry" />
        </mxCell>
        <mxCell id="l2L26NX0MNyejt-cYaBH-45" value="Nav" style="text;html=1;strokeColor=none;fillColor=none;align=center;verticalAlign=middle;whiteSpace=wrap;rounded=0;" vertex="1" parent="1">
          <mxGeometry x="58.75" y="600" width="60" height="30" as="geometry" />
        </mxCell>
        <mxCell id="l2L26NX0MNyejt-cYaBH-46" value="&lt;span style=&quot;font-size: 22px&quot;&gt;Update&lt;/span&gt;" style="text;html=1;strokeColor=none;fillColor=none;align=center;verticalAlign=middle;whiteSpace=wrap;rounded=0;fontSize=32;" vertex="1" parent="1">
          <mxGeometry x="133.75" y="550" width="60" height="30" as="geometry" />
        </mxCell>
        <mxCell id="l2L26NX0MNyejt-cYaBH-47" value="Location:&lt;br&gt;country:&lt;br&gt;state/province:&lt;br&gt;address:" style="text;html=1;strokeColor=none;fillColor=none;align=center;verticalAlign=middle;whiteSpace=wrap;rounded=0;fontSize=12;" vertex="1" parent="1">
          <mxGeometry x="48.75" y="630" width="85" height="80" as="geometry" />
        </mxCell>
        <mxCell id="l2L26NX0MNyejt-cYaBH-48" value="" style="rounded=0;whiteSpace=wrap;html=1;fontSize=12;" vertex="1" parent="1">
          <mxGeometry x="121.25" y="645" width="50" height="10" as="geometry" />
        </mxCell>
        <mxCell id="l2L26NX0MNyejt-cYaBH-49" value="" style="rounded=0;whiteSpace=wrap;html=1;fontSize=12;" vertex="1" parent="1">
          <mxGeometry x="121.25" y="660" width="50" height="10" as="geometry" />
        </mxCell>
        <mxCell id="l2L26NX0MNyejt-cYaBH-50" value="" style="rounded=0;whiteSpace=wrap;html=1;fontSize=12;" vertex="1" parent="1">
          <mxGeometry x="133.75" y="670" width="50" height="10" as="geometry" />
        </mxCell>
        <mxCell id="l2L26NX0MNyejt-cYaBH-51" value="" style="rounded=0;whiteSpace=wrap;html=1;fontSize=12;" vertex="1" parent="1">
          <mxGeometry x="121.25" y="690" width="50" height="10" as="geometry" />
        </mxCell>
        <mxCell id="l2L26NX0MNyejt-cYaBH-52" value="Upload Img" style="rounded=0;whiteSpace=wrap;html=1;fontSize=12;" vertex="1" parent="1">
          <mxGeometry x="193.75" y="640" width="80" height="50" as="geometry" />
        </mxCell>
        <mxCell id="l2L26NX0MNyejt-cYaBH-53" value="&lt;font style=&quot;font-size: 7px&quot;&gt;upload url&lt;/font&gt;" style="rounded=0;whiteSpace=wrap;html=1;fontSize=12;" vertex="1" parent="1">
          <mxGeometry x="203.75" y="695" width="60" height="20" as="geometry" />
        </mxCell>
        <mxCell id="l2L26NX0MNyejt-cYaBH-54" value="" style="rounded=0;whiteSpace=wrap;html=1;" vertex="1" parent="1">
          <mxGeometry x="542.5" y="340" width="230" height="170" as="geometry" />
        </mxCell>
        <mxCell id="l2L26NX0MNyejt-cYaBH-55" value="Nav" style="text;html=1;strokeColor=none;fillColor=none;align=center;verticalAlign=middle;whiteSpace=wrap;rounded=0;" vertex="1" parent="1">
          <mxGeometry x="550" y="350" width="60" height="30" as="geometry" />
        </mxCell>
        <mxCell id="l2L26NX0MNyejt-cYaBH-56" value="&lt;span style=&quot;font-size: 22px&quot;&gt;Signup/login&lt;/span&gt;" style="text;html=1;strokeColor=none;fillColor=none;align=center;verticalAlign=middle;whiteSpace=wrap;rounded=0;fontSize=32;" vertex="1" parent="1">
          <mxGeometry x="560" y="290" width="200" height="40" as="geometry" />
        </mxCell>
        <mxCell id="l2L26NX0MNyejt-cYaBH-57" value="&lt;font style=&quot;font-size: 7px&quot;&gt;First Name&lt;br&gt;Last Name&lt;br&gt;username&lt;br&gt;password&lt;br&gt;Country&lt;br&gt;State/Province&lt;br&gt;City&lt;/font&gt;" style="text;html=1;strokeColor=none;fillColor=none;align=center;verticalAlign=middle;whiteSpace=wrap;rounded=0;fontSize=12;" vertex="1" parent="1">
          <mxGeometry x="665" y="395" width="55" height="100" as="geometry" />
        </mxCell>
        <mxCell id="l2L26NX0MNyejt-cYaBH-58" value="" style="rounded=0;whiteSpace=wrap;html=1;fontSize=12;" vertex="1" parent="1">
          <mxGeometry x="720" y="430" width="50" height="10" as="geometry" />
        </mxCell>
        <mxCell id="l2L26NX0MNyejt-cYaBH-60" value="" style="rounded=0;whiteSpace=wrap;html=1;fontSize=12;" vertex="1" parent="1">
          <mxGeometry x="720" y="445" width="50" height="10" as="geometry" />
        </mxCell>
        <mxCell id="l2L26NX0MNyejt-cYaBH-61" value="" style="rounded=0;whiteSpace=wrap;html=1;fontSize=12;" vertex="1" parent="1">
          <mxGeometry x="720" y="465" width="50" height="10" as="geometry" />
        </mxCell>
        <mxCell id="l2L26NX0MNyejt-cYaBH-64" value="" style="rounded=0;whiteSpace=wrap;html=1;fontSize=12;" vertex="1" parent="1">
          <mxGeometry x="720" y="475" width="50" height="10" as="geometry" />
        </mxCell>
        <mxCell id="l2L26NX0MNyejt-cYaBH-65" value="" style="rounded=0;whiteSpace=wrap;html=1;fontSize=12;" vertex="1" parent="1">
          <mxGeometry x="597.5" y="410" width="50" height="10" as="geometry" />
        </mxCell>
        <mxCell id="l2L26NX0MNyejt-cYaBH-66" value="" style="rounded=0;whiteSpace=wrap;html=1;fontSize=12;" vertex="1" parent="1">
          <mxGeometry x="720" y="405" width="50" height="10" as="geometry" />
        </mxCell>
        <mxCell id="l2L26NX0MNyejt-cYaBH-67" value="" style="rounded=0;whiteSpace=wrap;html=1;fontSize=12;" vertex="1" parent="1">
          <mxGeometry x="720" y="417.5" width="50" height="10" as="geometry" />
        </mxCell>
        <mxCell id="l2L26NX0MNyejt-cYaBH-68" value="&lt;font style=&quot;font-size: 7px&quot;&gt;User Name&lt;br&gt;&lt;br&gt;Password&lt;br&gt;&lt;/font&gt;" style="text;html=1;strokeColor=none;fillColor=none;align=center;verticalAlign=middle;whiteSpace=wrap;rounded=0;fontSize=7;" vertex="1" parent="1">
          <mxGeometry x="542.5" y="405" width="60" height="30" as="geometry" />
        </mxCell>
        <mxCell id="l2L26NX0MNyejt-cYaBH-69" value="" style="rounded=0;whiteSpace=wrap;html=1;fontSize=12;" vertex="1" parent="1">
          <mxGeometry x="597.5" y="422.5" width="50" height="10" as="geometry" />
        </mxCell>
        <mxCell id="l2L26NX0MNyejt-cYaBH-70" value="&lt;font style=&quot;font-size: 10px&quot;&gt;Login&lt;/font&gt;" style="text;html=1;strokeColor=none;fillColor=none;align=center;verticalAlign=middle;whiteSpace=wrap;rounded=0;fontSize=7;fontStyle=4" vertex="1" parent="1">
          <mxGeometry x="570" y="380" width="60" height="15" as="geometry" />
        </mxCell>
        <mxCell id="l2L26NX0MNyejt-cYaBH-71" value="&lt;font style=&quot;font-size: 10px&quot;&gt;Signup&lt;/font&gt;" style="text;html=1;strokeColor=none;fillColor=none;align=center;verticalAlign=middle;whiteSpace=wrap;rounded=0;fontSize=7;fontStyle=4" vertex="1" parent="1">
          <mxGeometry x="692.5" y="380" width="60" height="15" as="geometry" />
        </mxCell>
      </root>
    </mxGraphModel>
  </diagram>
</mxfile>
